:SAMPLES-PER-SECOND 30
:FULLY-SPECIFIED
:DEGREES
1388
root  34.4346 37.8608 7.13623 170.991 70.2765 169.548
RightUpLeg  -28.7885 -24.3456 -3.63728
RightLeg  71.8733 -0.578717 -2.96046
RightFoot  11.1067 -0.487915 2.87221
RightToes  0.000482159 0.542163 -0.142577
Spine  39.0822 -0.472301 5.86801
Spine1  12.4259 5.23947 -10.7209
HEad  1.1418 -12.4583 -3.18877
LeftShoulder1  8.49593 -14.0474 -42.027
LeftArm  -9.86326 10.0949 -29.8767
LeftForeArm  40.2655 -42.2398 -7.51617
LeftHand  -0.25398 0.0180481 5.50724
RightShoulder  4.15526 9.44787 26.0072
RightArm  -6.70955 36.0379 37.1647
RightForeArm  2.06663 19.863 5.02098
RightHand  -2.18044 7.2453 -20.2522
LeftUpLeg  -27.4353 27.1191 -19.3424
LeftLeg  17.0718 4.92634 -0.0152132
LeftFoot  2.45611 -2.27114 18.4847
LeftToes  1.06246e-005 4.65854e-005 -8.18502e-006
1389
root  35.0722 38.1736 7.48715 174.856 67.9282 172.066
RightUpLeg  -33.5488 -22.5267 -3.46005
RightLeg  67.8375 -0.978441 -3.36868
RightFoot  8.24375 -0.696426 4.35342
RightToes  0.000482159 0.542163 -0.142577
Spine  42.2441 -1.49691 8.32203
Spine1  13.2352 5.51777 -10.9363
HEad  -2.2962 -15.0746 -2.79446
LeftShoulder1  8.7416 -14.547 -42.0467
LeftArm  -8.22776 9.58305 -30.7548
LeftForeArm  37.9344 -42.689 -7.80156
LeftHand  -0.25398 0.0180481 5.50724
RightShoulder  4.00601 9.59777 24.4309
RightArm  -9.6202 39.9426 35.6098
RightForeArm  4.96194 15.5366 5.80639
RightHand  -2.1197 6.99705 -20.0832
LeftUpLeg  -26.7843 23.8012 -17.2622
LeftLeg  15.761 5.77083 -0.568055
LeftFoot  3.45795 -2.24724 17.0056
LeftToes  1.06246e-005 4.65854e-005 -8.18502e-006
1390
root  35.73 38.4377 7.88035 178.721 65.3034 174.787
RightUpLeg  -35.9284 -20.6938 -3.58779
RightLeg  59.6659 -2.57327 -5.16743
RightFoot  6.85603 -0.684127 4.55405
RightToes  0.000482159 0.542163 -0.142577
Spine  45.1616 -2.74355 11.0414
Spine1  14.3095 5.89792 -11.0428
HEad  -5.68172 -17.7956 -2.22254
LeftShoulder1  8.97902 -15.0876 -41.9216
LeftArm  -6.2447 9.08228 -31.3927
LeftForeArm  37.5752 -43.0887 -7.95154
LeftHand  -0.25398 0.0180481 5.50724
RightShoulder  3.8644 9.73455 22.9723
RightArm  -13.55 43.9243 32.8723
RightForeArm  8.11619 11.0405 6.44147
RightHand  -2.06109 6.76943 -19.8964
LeftUpLeg  -26.4604 21.4369 -15.2058
LeftLeg  14.8936 5.52254 -1.25345
LeftFoot  4.05014 -2.16834 15.7526
LeftToes  1.06246e-005 4.65854e-005 -8.18502e-006
1391
root  36.4479 38.6369 8.33251 -178.635 62.4932 176.207
RightUpLeg  -36.3102 -18.381 -4.55414
RightLeg  48.6253 -5.88083 -7.39679
RightFoot  5.67573 -0.44283 3.20841
RightToes  0.000482159 0.542163 -0.142577
Spine  47.9737 -3.79976 13.1583
Spine1  15.0458 6.23737 -10.6395
HEad  -8.53555 -20.4494 -1.62392
LeftShoulder1  9.22505 -15.5449 -42.0425
LeftArm  -3.80604 8.7588 -31.3935
LeftForeArm  37.8415 -43.1559 -7.9561
LeftHand  -0.25398 0.0180481 5.50724
RightShoulder  3.77156 9.99893 21.6359
RightArm  -16.5509 47.273 29.1553
RightForeArm  9.27433 7.14856 6.50209
RightHand  -2.03563 6.68506 -19.7926
LeftUpLeg  -26.5151 19.7116 -13.6753
LeftLeg  14.3476 4.2673 -2.14299
LeftFoot  4.43778 -2.14988 15.2223
LeftToes  1.06246e-005 4.65854e-005 -8.18502e-006
1392
root  37.2558 38.7257 8.84585 -177.442 59.2681 175.786
RightUpLeg  -35.4586 -15.6053 -7.03427
RightLeg  36.1631 -9.40598 -7.61083
RightFoot  3.48516 -0.318528 2.64973
RightToes  0.000482159 0.542163 -0.142577
Spine  50.674 -4.76058 14.5715
Spine1  15.1568 6.38991 -10.1572
HEad  -11.176 -23.2082 -0.344054
LeftShoulder1  9.45998 -15.9725 -42.1748
LeftArm  -1.33492 8.62686 -30.9741
LeftForeArm  37.366 -42.6527 -7.82652
LeftHand  -0.25398 0.0180481 5.50724
RightShoulder  3.68183 10.2309 20.4306
RightArm  -18.9502 49.6178 24.9403
RightForeArm  8.6758 4.32166 6.26828
RightHand  -2.16761 7.11424 -20.3319
LeftUpLeg  -27.4296 18.2302 -13.4299
LeftLeg  14.6568 2.33236 -2.42856
LeftFoot  4.65445 -2.06744 14.4291
LeftToes  1.06246e-005 4.65854e-005 -8.18502e-006
1393
root  38.1664 38.6691 9.41131 -176.903 55.5861 174.213
RightUpLeg  -34.3543 -12.4427 -10.8531
RightLeg  24.3765 -9.94917 -5.16078
RightFoot  1.47505 -0.411233 3.76525
RightToes  0.000482159 0.542163 -0.142577
Spine  52.9235 -5.83122 15.8394
Spine1  15.0346 6.54605 -10.1795
HEad  -14.1172 -26.315 2.07403
LeftShoulder1  9.66269 -16.545 -41.8217
LeftArm  0.669799 8.52406 -30.6538
LeftForeArm  36.029 -41.496 -7.55132
LeftHand  -0.25398 0.0180481 5.50724
RightShoulder  3.53791 10.1261 19.5193
RightArm  -22.1463 51.0604 20.2905
RightForeArm  7.545 2.50474 5.98187
RightHand  -2.48361 8.02655 -21.6675
LeftUpLeg  -29.5293 17.4915 -14.7475
LeftLeg  16.2869 -0.826868 -1.99512
LeftFoot  4.35854 -1.83206 13.0291
LeftToes  1.06246e-005 4.65854e-005 -8.18502e-006
